<svg xmlns:cc="http://creativecommons.org/ns#" xmlns:dc="http://purl.org/dc/elements/1.1/" xmlns:inkscape="http://www.inkscape.org/namespaces/inkscape" xmlns:rdf="http://www.w3.org/1999/02/22-rdf-syntax-ns#" xmlns:sodipodi="http://sodipodi.sourceforge.net/DTD/sodipodi-0.dtd" xmlns:svg="http://www.w3.org/2000/svg" xmlns="http://www.w3.org/2000/svg" xmlns:xlink="http://www.w3.org/1999/xlink" version="1.1" x="0px" y="0px" viewBox="0 0 64 80" style="enable-background:new 0 0 64 64;" xml:space="preserve"><g><path d="M52,34c-2.2,0-4-1.8-4-4c0-0.1,0.9-10,4-10s4,9.9,4,10C56,32.2,54.2,34,52,34z M52,22.1c-0.9,1.1-2,6-2,7.9   c0,1.1,0.9,2,2,2s2-0.9,2-2C54,28.2,52.9,23.2,52,22.1z"/><path d="M24,30c-2.2,0-4-1.8-4-4s1.8-4,4-4s4,1.8,4,4S26.2,30,24,30z M24,24c-1.1,0-2,0.9-2,2s0.9,2,2,2s2-0.9,2-2S25.1,24,24,24z"/><path d="M40,30c-2.2,0-4-1.8-4-4s1.8-4,4-4s4,1.8,4,4S42.2,30,40,30z M40,24c-1.1,0-2,0.9-2,2s0.9,2,2,2s2-0.9,2-2S41.1,24,40,24z"/><path d="M55.8,29.6L54,31.1c0,0.3,0,0.6,0,0.9c0,12.1-9.9,22-22,22s-22-9.9-22-22c0-12.1,9.9-22,22-22c8.1,0,15.5,4.4,19.3,11.5   c0.3,0.5,0.9,0.7,1.4,0.4c0.5-0.3,0.7-0.9,0.4-1.4C48.9,12.8,40.8,8,32,8C18.8,8,8,18.8,8,32c0,13.2,10.8,24,24,24s24-10.8,24-24   c0-0.7,0-1.4-0.1-2C55.9,29.8,55.9,29.7,55.8,29.6z"/><path d="M45,38H19c-0.6,0-1-0.4-1-1s0.4-1,1-1h26c0.6,0,1,0.4,1,1S45.6,38,45,38z"/></g><text x="0" y="79" fill="#000000" font-size="5px" font-weight="bold" font-family="'Helvetica Neue', Helvetica, Arial-Unicode, Arial, Sans-serif">Created by RomStu</text><text x="0" y="84" fill="#000000" font-size="5px" font-weight="bold" font-family="'Helvetica Neue', Helvetica, Arial-Unicode, Arial, Sans-serif">from the Noun Project</text></svg>