<svg id="ehr3Qjkcw5J1" xmlns="http://www.w3.org/2000/svg" xmlns:xlink="http://www.w3.org/1999/xlink" viewBox="0 0 300 300" shape-rendering="geometricPrecision" text-rendering="geometricPrecision"><g transform="matrix(1.62185 0 0 1.787569-68.790741-65.15555)"><line x1="-37.885561" y1="0" x2="37.885561" y2="0" transform="matrix(.752214 0 0 1 80.59895 55.654895)" fill="none" stroke="#007dcc" stroke-width="20" stroke-linecap="round"/><line x1="-37.885561" y1="0" x2="37.885561" y2="0" transform="matrix(.752214 0 0 1 80.598946 104.604381)" fill="none" stroke="#007dcc" stroke-width="20" stroke-linecap="round"/><line x1="-37.885561" y1="0" x2="37.885561" y2="0" transform="matrix(.716808 0 0-1 191.887422 120.129638)" fill="none" stroke="#007dcc" stroke-width="20" stroke-linecap="round"/><line x1="-37.885561" y1="0" x2="37.885561" y2="0" transform="matrix(.752214 0 0 1 80.598946 136.119803)" fill="none" stroke="#007dcc" stroke-width="20" stroke-linecap="round"/><line x1="-37.885561" y1="0" x2="37.885561" y2="0" transform="matrix(.752214 0 0 1 136.253972 160.594546)" fill="none" stroke="#007dcc" stroke-width="20" stroke-linecap="round"/><line x1="-37.885561" y1="0" x2="37.885561" y2="0" transform="matrix(.752214 0 0 1 136.253972 80.129638)" fill="none" stroke="#007dcc" stroke-width="20" stroke-linecap="round"/><line x1="0" y1="-24.474743" x2="0" y2="24.474743" transform="translate(107.755923 80.129638)" fill="none" stroke="#007dcc" stroke-width="20" stroke-linecap="round"/><line x1="0" y1="-24.474743" x2="0" y2="20.448332" transform="matrix(1 0.000649-.000968 1.490934 164.705758 122.989986)" fill="none" stroke="#007dcc" stroke-width="20" stroke-linecap="round"/><line x1="-37.885561" y1="0" x2="37.885561" y2="0" transform="matrix(.752214 0 0 1 79.257874 185.069289)" fill="none" stroke="#007dcc" stroke-width="20" stroke-linecap="round"/><line x1="0" y1="-24.474743" x2="0" y2="24.474743" transform="translate(109.096995 160.594546)" fill="none" stroke="#007dcc" stroke-width="20" stroke-linecap="round"/></g></svg>
